<?xml version="1.0" encoding="iso-8859-1"?>
<!-- Generator: Adobe Illustrator 21.1.0, SVG Export Plug-In . SVG Version: 6.00 Build 0)  -->
<svg version="1.1" id="Layer_1" xmlns="http://www.w3.org/2000/svg" xmlns:xlink="http://www.w3.org/1999/xlink" x="0px" y="0px"
	 viewBox="0 0 100 100" style="enable-background:new 0 0 100 100;" xml:space="preserve">
<g>
	<path d="M85.992,34.428l-18.731-0.012c-2.217-6.125-7.85-10.455-14.327-11.039v-6.519h10.906c0.828,0,1.5-0.671,1.5-1.5
		s-0.672-1.5-1.5-1.5H39.34c-0.829,0-1.5,0.671-1.5,1.5s0.671,1.5,1.5,1.5h10.595v6.51c-6.674,0.546-12.001,4.733-14.051,11.059
		l-10.843-0.012c-5.875,0-10.714,4.519-11.226,10.264c-0.029,0.117-0.044,0.239-0.044,0.365v8.44c0,0.828,0.671,1.5,1.5,1.5H24.4
		c0.829,0,1.5-0.672,1.5-1.5v-6.94h9.971c2.581,6.279,8.698,10.429,15.564,10.429c6.857,0,12.981-4.144,15.566-10.417h18.99
		c0.828,0,1.5-0.671,1.5-1.5v-9.128C87.491,35.1,86.82,34.429,85.992,34.428z M84.491,43.556H65.956
		c-0.688,0-1.272,0.465-1.445,1.109c-1.93,5.571-7.173,9.308-13.076,9.308c-5.775,0-10.902-3.574-12.932-8.939
		c-0.006-0.786-0.617-1.422-1.389-1.479c-0.122-0.018-0.246-0.025-0.372-0.011H24.4c-0.829,0-1.5,0.671-1.5,1.5v6.94h-6.129v-6.297
		c0-4.561,3.71-8.272,8.269-8.272l11.961,0.013c0.001,0,0.003,0,0.004,0c0.003,0,0.006-0.001,0.009-0.001
		c0.15-0.001,0.293-0.03,0.43-0.072c0.026-0.008,0.052-0.015,0.078-0.024c0.134-0.049,0.258-0.116,0.37-0.199
		c0.021-0.016,0.04-0.033,0.06-0.05c0.113-0.093,0.216-0.197,0.298-0.319c0.004-0.006,0.007-0.013,0.011-0.02
		c0.081-0.125,0.14-0.263,0.181-0.41c0.004-0.014,0.013-0.024,0.017-0.038c1.529-6.066,6.62-9.986,12.969-9.989
		c0.002,0,0.004,0.001,0.007,0.001c0.002,0,0.005-0.001,0.007-0.001c6.143,0.003,11.611,4.123,13.296,10.023
		c0.003,0.009,0.007,0.016,0.01,0.025c0.025,0.082,0.056,0.16,0.094,0.235c0.009,0.017,0.018,0.034,0.027,0.05
		c0.038,0.068,0.079,0.132,0.126,0.192c0.014,0.018,0.029,0.036,0.044,0.053c0.047,0.056,0.098,0.107,0.153,0.155
		c0.018,0.016,0.037,0.031,0.055,0.046c0.056,0.044,0.114,0.085,0.177,0.121c0.022,0.013,0.044,0.025,0.067,0.036
		c0.06,0.031,0.122,0.059,0.187,0.082c0.031,0.011,0.062,0.02,0.093,0.029c0.057,0.016,0.115,0.03,0.175,0.039
		c0.045,0.007,0.091,0.011,0.138,0.014c0.031,0.002,0.06,0.009,0.091,0.009l18.317,0.012V43.556z"/>
	<path d="M21.814,59.398c-0.23-0.563-0.779-0.932-1.388-0.932c-0.609,0-1.158,0.368-1.388,0.932
		c-0.229,0.56-5.618,13.755-6.443,18.644c0,0.001,0,0.002,0,0.003c-0.307,1.835,0.229,3.679,1.509,5.191
		c1.518,1.793,3.94,2.906,6.323,2.906c2.385,0,4.808-1.115,6.325-2.91c1.278-1.512,1.811-3.355,1.501-5.189
		C27.428,73.153,22.043,59.958,21.814,59.398z M24.459,81.297c-0.962,1.139-2.508,1.846-4.034,1.846
		c-1.525,0-3.07-0.707-4.034-1.845c-0.495-0.585-1.043-1.538-0.84-2.756c0.523-3.095,3.193-10.216,4.873-14.518
		c1.679,4.302,4.347,11.421,4.869,14.518C25.5,79.759,24.954,80.712,24.459,81.297z"/>
</g>
</svg>
